<mxfile host="app.diagrams.net" modified="2022-08-12T03:36:01.156Z" agent="5.0 (Windows NT 10.0; Win64; x64) AppleWebKit/537.36 (KHTML, like Gecko) Chrome/104.0.5112.81 Safari/537.36 Edg/104.0.1293.47" etag="6qOo4w_wcJ9tVoABKRHm" version="20.2.3" type="github">
  <diagram id="prtHgNgQTEPvFCAcTncT" name="Page-1">
    <mxGraphModel dx="1038" dy="579" grid="1" gridSize="10" guides="1" tooltips="1" connect="1" arrows="1" fold="1" page="1" pageScale="1" pageWidth="827" pageHeight="1169" math="0" shadow="0">
      <root>
        <mxCell id="0" />
        <mxCell id="1" parent="0" />
        <mxCell id="vWy_aqbwc0KfCV8UBpZy-27" value="渠道中心" style="swimlane;childLayout=stackLayout;resizeParent=1;resizeParentMax=0;startSize=20;" vertex="1" parent="1">
          <mxGeometry x="60" y="220" width="770" height="480" as="geometry" />
        </mxCell>
        <mxCell id="vWy_aqbwc0KfCV8UBpZy-28" value="微厅" style="swimlane;startSize=20;" vertex="1" parent="vWy_aqbwc0KfCV8UBpZy-27">
          <mxGeometry y="20" width="220" height="460" as="geometry" />
        </mxCell>
        <mxCell id="vWy_aqbwc0KfCV8UBpZy-29" value="渠道中心" style="swimlane;startSize=20;" vertex="1" parent="vWy_aqbwc0KfCV8UBpZy-27">
          <mxGeometry x="220" y="20" width="210" height="460" as="geometry" />
        </mxCell>
        <mxCell id="vWy_aqbwc0KfCV8UBpZy-31" value="三方渠道(微信/支付宝)" style="swimlane;startSize=20;" vertex="1" parent="vWy_aqbwc0KfCV8UBpZy-27">
          <mxGeometry x="430" y="20" width="170" height="460" as="geometry" />
        </mxCell>
        <mxCell id="vWy_aqbwc0KfCV8UBpZy-30" value="三方渠道(微信/支付宝)" style="swimlane;startSize=20;" vertex="1" parent="vWy_aqbwc0KfCV8UBpZy-27">
          <mxGeometry x="600" y="20" width="170" height="460" as="geometry" />
        </mxCell>
      </root>
    </mxGraphModel>
  </diagram>
</mxfile>
